<svg width="22" height="24" viewBox="0 0 22 24" fill="none" xmlns="http://www.w3.org/2000/svg">
<path d="M17.7333 23.04C16.4267 24.3067 15 24.1067 13.6267 23.5067C12.1733 22.8933 10.84 22.8667 9.30668 23.5067C7.38668 24.3333 6.37335 24.0933 5.22668 23.04C-1.27998 16.3333 -0.319984 6.12 7.06668 5.74667C8.86668 5.84 10.12 6.73333 11.1733 6.81333C12.7467 6.49333 14.2533 5.57333 15.9333 5.69333C17.9467 5.85333 19.4667 6.65333 20.4667 8.09333C16.3067 10.5867 17.2933 16.0667 21.1067 17.6C20.3467 19.6 19.36 21.5867 17.72 23.0533L17.7333 23.04ZM11.04 5.66667C10.84 2.69333 13.2533 0.24 16.0267 0C16.4133 3.44 12.9067 6 11.04 5.66667Z" fill="#E6E6E6"/>
</svg>
